<svg width="986.1312499999999px" height="392px" xmlns="http://www.w3.org/2000/svg" viewBox="-243.06562499999995 -121 986.1312499999999 392" style="background: rgba(0, 0, 0, 0);" preserveAspectRatio="xMidYMid"><defs><filter id="editing-extrude-glow"><feFlood flood-color="#333333" result="flood-1"></feFlood><feMorphology operator="erode" radius="1" in="SourceAlpha" result="erode"></feMorphology><feComposite operator="in" in="flood-1" in2="erode" result="comp1"></feComposite><feConvolveMatrix order="2,2" divisor="1" in="comp1" result="convolve" kernelMatrix="0 0 1 1"></feConvolveMatrix><feOffset dx="-2" dy="0" in="convolve" result="extrude"></feOffset><feComposite operator="in" in="flood-1" in2="extrude" result="comp-extrude"></feComposite><feFlood flood-color="#000000" result="flood-2"></feFlood><feComposite operator="in" in="flood-2" in2="SourceAlpha" result="comp2"></feComposite><feMorphology operator="dilate" radius="1" in="comp2" result="dilate"></feMorphology><feOffset dx="-3" dy="0" in="dilate" result="offset"></feOffset><feGaussianBlur in="offset" stdDeviation="5.8" result="blur"></feGaussianBlur><feComponentTransfer in="blur" result="shadow"><feFuncA type="linear" slope="0.8" intercept="-0.2"></feFuncA></feComponentTransfer><feMerge><feMergeNode in="shadow"></feMergeNode><feMergeNode in="comp-extrude"></feMergeNode><feMergeNode in="SourceGraphic"></feMergeNode></feMerge></filter></defs><g filter="url(#editing-extrude-glow)"><g transform="translate(-105.2000150680542, 174.29999923706055)"><path d="M91-13.80L86.80-13.80L7.20-46L7.20-82.80L86.80-115.20L91-115.20L91-84L36.80-65.60L36.80-63.40L91-44.80L91-13.80ZM124.40 30.20L95.80 30.20L95.80 23.80L160-168.40L188.40-168.40L188.40-162L124.40 30.20ZM312.20 0L188.40 0L188.40-32.80L198.40-32.80L198.40-122.80L188.40-122.80L188.40-155.60L272.80-155.60L272.80-122.80L254.40-122.80L254.40-32.80L272.40-32.80L272.40-51.20L312.20-51.20L312.20 0ZM381 2.80L381 2.80Q361.80 2.80 344.70-0.50L344.70-0.50L344.70-0.50Q327.60-3.80 318.40-8L318.40-8L318.40-47.60L362.40-47.60L362.40-47.60Q362.40-41.40 365.20-38.60L365.20-38.60L365.20-38.60Q368-35.80 375.40-35.80L375.40-35.80L375.40-35.80Q381.60-35.80 384.30-37.70L384.30-37.70L384.30-37.70Q387-39.60 387-43.40L387-43.40L387-43.40Q387-46.60 384.40-48.90L384.40-48.90L384.40-48.90Q381.80-51.20 375.40-53.60L375.40-53.60L358.20-59.60L358.20-59.60Q336-68 326.30-79.40L326.30-79.40L326.30-79.40Q316.60-90.80 316.60-110.20L316.60-110.20L316.60-110.20Q316.60-133.80 332.10-146.10L332.10-146.10L332.10-146.10Q347.60-158.40 383.80-158.40L383.80-158.40L383.80-158.40Q401.20-158.40 416.50-154.90L416.50-154.90L416.50-154.90Q431.80-151.40 441.20-145.60L441.20-145.60L441.20-109.80L401.20-109.80L401.20-109.80Q401.20-119.80 388.80-119.80L388.80-119.80L388.80-119.80Q382.80-119.80 380.30-118.30L380.30-118.30L380.30-118.30Q377.80-116.80 377.80-113L377.80-113L377.80-113Q377.80-109.60 380.70-107.60L380.70-107.60L380.70-107.60Q383.60-105.60 390.20-103.40L390.20-103.40L407.60-97.40L407.60-97.40Q428.80-90.20 438.50-78.70L438.50-78.70L438.50-78.70Q448.20-67.20 448.20-48.60L448.20-48.60L448.20-48.60Q448.20-23.20 431.10-10.20L431.10-10.20L431.10-10.20Q414 2.80 381 2.80L381 2.80ZM453.80 0L453.80-32.80L463.80-32.80L463.80-122.60L453.80-122.60L453.80-155.60L535-155.60L535-155.60Q568.40-155.60 588.10-137.30L588.10-137.30L588.10-137.30Q607.80-119 607.80-77.80L607.80-77.80L607.80-77.80Q607.80-36.60 588.10-18.30L588.10-18.30L588.10-18.30Q568.40 0 535 0L535 0L453.80 0ZM519.80-32.80L531.40-32.80L531.40-32.80Q538.20-32.80 541.60-36.40L541.60-36.40L541.60-36.40Q545-40 545-47.60L545-47.60L545-108L545-108Q545-122.80 531.40-122.80L531.40-122.80L519.80-122.80L519.80-32.80ZM623.60-13.80L619.40-13.80L619.40-44.80L673.60-63.40L673.60-65.60L619.40-84L619.40-115.20L623.60-115.20L703.20-82.80L703.20-46L623.60-13.80Z" fill="#eb6c6c"></path></g></g><style>text {
  font-size: 64px;
  font-family: Arial Black;
  dominant-baseline: central;
  text-anchor: middle;
}</style></svg>